<svg width="557" height="665" viewBox="0 0 557 665" fill="none" xmlns="http://www.w3.org/2000/svg">
<mask id="mask0_277_9635" style="mask-type:luminance" maskUnits="userSpaceOnUse" x="0" y="0" width="557" height="513">
<path d="M0 0H556.347V513H0V0Z" fill="white"/>
</mask>
<g mask="url(#mask0_277_9635)">
<path d="M542.242 198.428L480.284 150.034C480.284 149.81 480.298 149.599 480.298 149.375V45.5603C480.298 32.2906 469.544 21.5318 456.266 21.5318H424.312C411.035 21.5318 400.281 32.2906 400.281 45.5603V87.5575L298.055 7.72914C286.347 -1.41655 269.929 -1.41655 258.236 7.72914L14.0348 198.428C-10.2212 217.379 3.16869 256.318 33.9444 256.318H75.9929V493.544C75.9929 503.728 84.2371 511.99 94.4163 511.99H461.874C472.053 511.99 480.298 503.728 480.298 493.544V256.318H522.332C553.122 256.318 566.512 217.379 542.242 198.428Z" fill="#F69A5E"/>
</g>
<mask id="mask1_277_9635" style="mask-type:luminance" maskUnits="userSpaceOnUse" x="283" y="204" width="148" height="188">
<path d="M283.557 204.592H430.72V391.237H283.557V204.592Z" fill="white"/>
</mask>
<g mask="url(#mask1_277_9635)">
<mask id="mask2_277_9635" style="mask-type:luminance" maskUnits="userSpaceOnUse" x="265" y="190" width="186" height="217">
<path d="M315.441 190.823L450.307 228.175L400.842 406.772L265.975 369.421L315.441 190.823Z" fill="white"/>
</mask>
<g mask="url(#mask2_277_9635)">
<mask id="mask3_277_9635" style="mask-type:luminance" maskUnits="userSpaceOnUse" x="286" y="207" width="145" height="183">
<path d="M382.867 209.499C345.628 199.194 304.392 230.726 290.764 279.94C277.136 329.153 296.274 377.412 333.514 387.732C370.753 398.037 412.002 366.504 425.63 317.291C439.259 268.078 420.12 219.818 382.867 209.499Z" fill="white"/>
</mask>
<g mask="url(#mask3_277_9635)">
<path d="M315.441 190.823L450.307 228.175L400.996 406.239L266.129 368.902L315.441 190.823Z" fill="white"/>
</g>
</g>
</g>
<mask id="mask4_277_9635" style="mask-type:luminance" maskUnits="userSpaceOnUse" x="323" y="310" width="52" height="52">
<path d="M323.363 310.07H374.511V361.218H323.363V310.07Z" fill="white"/>
</mask>
<g mask="url(#mask4_277_9635)">
<path d="M375.31 336.051C375.31 337.747 375.141 339.444 374.805 341.112C374.483 342.781 373.978 344.407 373.333 345.992C372.674 347.562 371.875 349.062 370.935 350.478C369.982 351.894 368.902 353.212 367.696 354.418C366.491 355.624 365.187 356.69 363.771 357.643C362.34 358.596 360.854 359.396 359.27 360.041C357.7 360.7 356.073 361.19 354.405 361.527C352.736 361.849 351.04 362.018 349.329 362.018C347.633 362.018 345.936 361.849 344.268 361.527C342.599 361.19 340.973 360.7 339.388 360.041C337.818 359.396 336.318 358.596 334.902 357.643C333.486 356.69 332.168 355.624 330.962 354.418C329.756 353.212 328.69 351.894 327.737 350.478C326.798 349.062 325.984 347.562 325.339 345.992C324.681 344.407 324.19 342.781 323.853 341.112C323.531 339.444 323.363 337.747 323.363 336.051C323.363 334.34 323.531 332.658 323.853 330.975C324.19 329.307 324.681 327.68 325.339 326.11C325.984 324.526 326.798 323.04 327.737 321.623C328.69 320.193 329.756 318.889 330.962 317.684C332.168 316.478 333.486 315.398 334.902 314.445C336.318 313.505 337.818 312.706 339.388 312.047C340.973 311.402 342.599 310.912 344.268 310.575C345.936 310.239 347.633 310.07 349.329 310.07C351.04 310.07 352.736 310.239 354.405 310.575C356.073 310.912 357.7 311.402 359.27 312.047C360.854 312.706 362.34 313.505 363.771 314.445C365.187 315.398 366.491 316.478 367.696 317.684C368.902 318.889 369.982 320.193 370.935 321.623C371.875 323.04 372.674 324.526 373.333 326.11C373.978 327.68 374.483 329.307 374.805 330.975C375.141 332.658 375.31 334.34 375.31 336.051Z" fill="#F69A5E"/>
</g>
<mask id="mask5_277_9635" style="mask-type:luminance" maskUnits="userSpaceOnUse" x="232" y="408" width="92" height="46">
<path d="M232.984 408.665H323.433V453.363H232.984V408.665Z" fill="white"/>
</mask>
<g mask="url(#mask5_277_9635)">
<mask id="mask6_277_9635" style="mask-type:luminance" maskUnits="userSpaceOnUse" x="232" y="408" width="92" height="46">
<path d="M232.984 431.014C232.984 443.353 253.216 453.363 278.173 453.363C303.13 453.363 323.362 443.353 323.362 431.014C323.362 418.676 303.13 408.665 278.173 408.665C253.216 408.665 232.984 418.676 232.984 431.014Z" fill="white"/>
</mask>
<g mask="url(#mask6_277_9635)">
<path d="M232.984 453.363V408.665H323.433V453.363H232.984Z" fill="white"/>
</g>
</g>
<mask id="mask7_277_9635" style="mask-type:luminance" maskUnits="userSpaceOnUse" x="271" y="445" width="14" height="67">
<path d="M271.443 445.218H284.903V512H271.443V445.218Z" fill="white"/>
</mask>
<g mask="url(#mask7_277_9635)">
<path d="M271.443 445.218H284.903V511.988H271.443V445.218Z" fill="white"/>
</g>
<mask id="mask8_277_9635" style="mask-type:luminance" maskUnits="userSpaceOnUse" x="147" y="297" width="83" height="77">
<path d="M147.163 297.915H229.717V373.291H147.163V297.915Z" fill="white"/>
</mask>
<g mask="url(#mask8_277_9635)">
<mask id="mask9_277_9635" style="mask-type:luminance" maskUnits="userSpaceOnUse" x="134" y="285" width="109" height="103">
<path d="M134.095 332.813L169.82 285.1L242.322 339.388L206.597 387.101L134.095 332.813Z" fill="white"/>
</mask>
<g mask="url(#mask9_277_9635)">
<mask id="mask10_277_9635" style="mask-type:luminance" maskUnits="userSpaceOnUse" x="147" y="299" width="82" height="74">
<path d="M151.958 308.963C142.101 322.129 150.289 344.941 170.269 359.901C190.249 374.861 214.434 376.305 224.305 363.126C234.176 349.96 225.974 327.148 205.994 312.188C186.014 297.228 161.828 295.784 151.958 308.963Z" fill="white"/>
</mask>
<g mask="url(#mask10_277_9635)">
<path d="M134.095 332.813L169.82 285.1L242.14 339.248L206.415 386.961L134.095 332.813Z" fill="white"/>
</g>
</g>
</g>
<path d="M32.706 663.874C36.9263 663.874 40.6839 662.206 43.9788 658.883C47.3017 655.518 49.3067 651.522 49.9797 646.881C50.6527 641.02 50.9892 637.291 50.9892 635.72C50.9892 634.529 51.0453 633.87 51.1574 633.758C51.2976 633.617 52.181 633.533 53.7934 633.533C62.3881 632.524 69.3845 630.112 74.7685 626.298C80.1525 622.485 84.0503 617.872 86.4899 612.446C88.9576 606.992 90.1914 601.454 90.1914 595.845C90.1914 587.405 87.6817 580.002 82.6763 573.636C79.0449 569.346 75.6238 566.205 72.413 564.214C69.1882 562.237 65.3465 561.003 60.8599 560.513C56.3732 559.994 50.162 559.728 42.2402 559.728H31.1918C28.3876 559.728 25.4853 561.045 22.4989 563.653C19.4984 566.275 17.7879 569.654 17.3392 573.804C17.1149 577.436 17.0027 582.932 17.0027 590.293V603.865C17.0728 612.838 17.1149 626.747 17.1149 645.591V646.601C17.1149 654.649 20.7322 660.103 27.995 662.977C29.5934 663.566 31.1637 663.874 32.706 663.874ZM52.3913 605.996C52.195 605.996 51.9005 605.8 51.4939 605.379L51.2135 605.267C51.1294 605.085 51.1014 604.65 51.1014 603.977L51.2135 594.331C51.3257 592.915 51.7463 592.2 52.5034 592.2C53.5129 592.2 54.5505 592.985 55.6441 594.555C56.7658 596.098 57.3266 597.458 57.3266 598.649C57.3266 599.925 57.0041 601.117 56.3732 602.239C55.7282 603.332 54.9991 604.23 54.1859 604.931C53.4008 605.646 52.7979 605.996 52.3913 605.996Z" fill="#EB8B30"/>
<path d="M118.931 664.884C122.591 664.884 126.867 664.786 131.774 664.604C135.322 664.519 139.248 664.463 143.552 664.435C147.884 664.393 151.628 663.089 154.769 660.509C157.937 657.93 159.536 654.312 159.536 649.629C159.536 645.002 158.316 641.133 155.89 638.02C153.493 634.879 150.45 633.057 146.749 632.524C139.037 632.524 132.98 632.496 128.578 632.412C127.975 632.3 127.624 632.005 127.512 631.514C127.4 630.996 127.344 630.323 127.344 629.495C127.344 628.64 127.414 628.037 127.568 627.701C127.75 627.364 128.213 627.168 128.97 627.084C129.713 626.972 130.989 626.887 132.784 626.803L138.617 626.579C139.696 626.579 141.225 626.579 143.215 626.579C145.234 626.579 147.253 626.285 149.272 625.682C153.829 624.336 156.115 619.555 156.115 611.324C156.115 607.777 155.442 605.155 154.096 603.473C151.81 600.781 148.095 599.435 142.935 599.435C137.355 599.435 133.681 599.379 131.887 599.266C130.12 599.126 129.054 598.846 128.69 598.425C128.353 597.977 128.185 597.346 128.185 596.518V596.014L128.073 593.939C128.073 593.35 128.466 592.971 129.251 592.817C130.933 592.817 133.415 592.691 136.71 592.424C141 592.088 144.814 591.92 148.151 591.92C151.922 591.92 154.741 590.952 156.619 589.003C159.494 585.975 160.938 582.049 160.938 577.226C160.938 572.739 159.956 569.234 158.021 566.682C154.278 562.125 148.347 559.84 140.243 559.84H109.79C101.672 560.331 97.1991 563.682 96.3859 569.879C96.1896 571.225 96.1055 575.487 96.1055 582.666C96.1055 586.564 96.1195 590.545 96.1616 594.612C96.1896 598.65 96.2317 602.071 96.2737 604.875C96.3438 607.651 96.4139 609.025 96.4981 609.025L96.3859 634.935C96.3859 643.656 96.8346 650.134 97.7319 654.396C98.6573 658.659 100.732 661.463 103.957 662.809C107.168 664.183 112.159 664.884 118.931 664.884Z" fill="#EB8B30"/>
<path d="M203.946 663.201C208.573 663.201 212.387 661.715 215.387 658.715C218.416 655.728 220.042 651.522 220.266 646.096L220.435 625.682L220.266 607.006C220.266 600.767 220.393 596.743 220.659 594.948C220.729 593.868 221.066 593.139 221.668 592.761C222.257 592.396 222.734 592.2 223.071 592.2C225.538 592.2 228.23 592.074 231.147 591.807C234.063 591.555 236.615 590.826 238.83 589.62C243.877 586.676 246.401 581.474 246.401 574.029C246.401 569.738 245.252 566.458 242.98 564.214C240.695 561.971 238.157 560.485 235.353 559.728C232.577 558.942 230.361 558.55 228.679 558.55H184.485C180.027 558.55 175.736 559.489 171.586 561.354C165.305 564.158 162.164 568.981 162.164 575.823C162.164 579.455 163.342 582.638 165.697 585.358C168.081 588.05 170.52 589.872 172.988 590.798C174.25 591.288 175.638 591.639 177.138 591.863C178.667 592.088 181.036 592.2 184.261 592.2C185.116 592.2 185.971 592.34 186.841 592.592C187.738 592.817 188.215 593.434 188.299 594.443C188.888 605.968 189.196 621.742 189.196 641.777V647.386C189.196 647.47 189.364 648.325 189.701 649.966C190.037 651.62 190.71 653.471 191.72 655.518C192.758 657.537 194.258 659.332 196.207 660.902C198.142 662.43 200.721 663.201 203.946 663.201Z" fill="#EB8B30"/>
<path d="M316.177 664.099C320.215 664.099 324.057 663.005 327.73 660.846C331.432 658.645 333.479 655.125 333.899 650.302C333.969 646.152 334.012 642.703 334.012 639.927C334.012 637.123 334.068 635.033 334.18 633.645C334.32 632.229 334.741 631.514 335.414 631.514L340.012 631.402C340.756 631.402 341.218 631.458 341.415 631.57C341.639 631.682 341.751 631.907 341.751 632.243V636.562C341.751 643.937 341.975 649.321 342.424 652.714C343.097 656.415 344.906 659.219 347.864 661.126C350.808 663.033 354.103 663.986 357.735 663.986C360.273 663.986 362.782 663.44 365.25 662.36C370.662 659.977 373.382 655.686 373.382 649.517C373.382 635.384 373.452 623.859 373.606 614.914C373.676 607.286 373.719 595.901 373.719 580.759C373.719 575.347 372.877 571.155 371.195 568.196C368.166 562.896 363.469 560.232 357.118 560.232C354.566 560.232 352.309 560.597 350.332 561.298C348.341 562.013 346.981 562.798 346.238 563.653C344.359 566.009 343.181 568.953 342.704 572.458C342.256 575.978 342.031 579.343 342.031 582.553L342.256 599.435C342.256 604.482 341.835 607.006 341.022 607.006L337.096 607.174C335.89 607.174 335.161 607.034 334.909 606.725C334.685 606.431 334.572 605.814 334.572 604.875L334.797 583.283L334.685 575.431C334.685 571.729 333.703 568.729 331.768 566.401C329.819 564.046 327.394 562.349 324.477 561.298C321.561 560.26 318.659 559.728 315.784 559.728C311.704 559.728 308.395 561.494 305.858 564.999C303.306 568.477 301.96 573.188 301.82 579.132L301.315 625.682C301.385 630.841 301.427 637.109 301.427 644.469C301.427 648.704 301.623 651.985 302.044 654.34C302.493 656.696 303.558 658.771 305.241 660.565C308.045 662.921 311.69 664.099 316.177 664.099Z" fill="#EB8B30"/>
<path d="M420.932 664.492C428.7 664.492 435.36 662.388 440.898 658.21C446.422 654.032 450.685 648.844 453.685 642.675C456.714 636.506 458.228 630.379 458.228 624.28C458.789 615.391 459.069 607.511 459.069 600.669C459.069 595.509 458.985 590.952 458.845 586.984L458.733 578.628C458.733 574.562 457.779 571.169 455.872 568.477C453.966 565.757 451.722 563.738 449.142 562.42C446.563 561.116 444.207 560.457 442.076 560.457C438.108 560.457 434.575 562.238 431.476 565.785C428.406 569.346 426.737 573.454 426.485 578.123C426.218 587.181 426.092 595.705 426.092 603.697C426.092 612.194 425.924 617.886 425.587 620.803C425.251 623.719 424.101 625.177 422.166 625.177C420.288 625.177 419.138 623.859 418.689 621.195C418.24 618.503 418.016 615.222 418.016 611.325V602.856L417.848 596.519L418.016 588.106C418.016 582.806 417.483 578.207 416.446 574.31C416.025 573.3 415.394 571.94 414.539 570.216C411.244 563.906 406.856 560.737 401.359 560.737C393.844 560.737 388.741 563.822 386.049 569.991C383.833 574.969 382.74 584.615 382.74 598.93C382.74 606.712 383.034 614.788 383.637 623.158C383.861 627.392 384.717 631.893 386.217 636.674C387.703 641.427 389.918 645.9 392.835 650.078C395.751 654.27 399.509 657.734 404.107 660.454C408.706 663.146 414.315 664.492 420.932 664.492Z" fill="#EB8B30"/>
<path d="M504.508 661.799C509.738 661.799 514.211 661.393 517.912 660.566C525.68 658.434 531.512 654.452 535.41 648.62C539.336 642.787 541.299 636.492 541.299 629.72C541.299 624.644 540.205 619.723 538.046 614.97C535.873 610.189 532.634 606.151 528.344 602.856C527.671 602.337 527.166 601.902 526.83 601.566C526.493 601.229 526.325 600.865 526.325 600.444C526.325 599.925 526.563 599.154 527.054 598.145C528.736 594.191 529.578 590.265 529.578 586.367C529.578 580.352 527.741 574.982 524.081 570.271C520.408 565.532 515.276 562.223 508.659 560.345C505.364 559.489 502.111 559.055 498.9 559.055C496.685 559.055 494.483 559.153 492.282 559.335C490.109 559.489 487.796 559.616 485.328 559.728C481.178 559.882 477.56 560.948 474.504 562.924C471.475 564.915 469.582 568.028 468.839 572.29C468.503 574.393 468.293 584.783 468.222 603.473L468.054 611.997L468.222 647.722C468.222 652.546 469.47 656.079 471.98 658.322C474.518 660.566 477.322 661.687 480.393 661.687L504.508 661.799ZM501.199 634.655C500.751 634.655 500.526 634.417 500.526 633.926L500.414 622.485C500.414 621.405 500.442 620.564 500.526 619.961C500.639 619.372 500.933 619.064 501.424 619.064C503.022 619.148 504.34 619.905 505.35 621.363C506.387 622.793 506.92 624.532 506.92 626.579C506.92 628.191 506.499 629.748 505.686 631.234C504.901 632.692 503.569 633.8 501.704 634.543L501.199 634.655ZM500.695 596.014V584.46C503.387 584.46 504.733 586.409 504.733 590.293C504.733 591.639 504.466 592.929 503.948 594.163C503.457 595.397 502.377 596.014 500.695 596.014Z" fill="#EB8B30"/>
</svg>
